<svg xmlns="http://www.w3.org/2000/svg" xmlns:xlink="http://www.w3.org/1999/xlink"><symbol id="icon-phone" viewBox="0 0 18 18">
<path d="M18 13.42V16.956C18.0001 17.2092 17.9042 17.453 17.7316 17.6382C17.559 17.8234 17.3226 17.9363 17.07 17.954C16.633 17.984 16.276 18 16 18C7.163 18 0 10.837 0 2C0 1.724 0.015 1.367 0.046 0.93C0.0637224 0.677444 0.176581 0.441011 0.361804 0.268409C0.547026 0.0958068 0.790823 -0.000114433 1.044 2.56579e-07H4.58C4.70404 -0.000125334 4.8237 0.045859 4.91573 0.12902C5.00776 0.212182 5.0656 0.326583 5.078 0.45C5.101 0.68 5.122 0.863 5.142 1.002C5.34073 2.38892 5.748 3.73783 6.35 5.003C6.445 5.203 6.383 5.442 6.203 5.57L4.045 7.112C5.36445 10.1865 7.81455 12.6365 10.889 13.956L12.429 11.802C12.4919 11.714 12.5838 11.6509 12.6885 11.6237C12.7932 11.5964 12.9042 11.6068 13.002 11.653C14.267 12.2539 15.6156 12.6601 17.002 12.858C17.141 12.878 17.324 12.9 17.552 12.922C17.6752 12.9346 17.7894 12.9926 17.8724 13.0846C17.9553 13.1766 18.0012 13.2961 18.001 13.42H18Z"/>
</symbol><symbol id="icon-twitter" viewBox="0 0 20 16">
<path d="M19.999 1.89937C19.25 2.22538 18.4556 2.43949 17.6423 2.53461C18.4996 2.03012 19.1412 1.23616 19.4476 0.300674C18.6431 0.771788 17.761 1.10195 16.8416 1.28055C16.2241 0.630434 15.4056 0.199271 14.5133 0.0540959C13.621 -0.0910793 12.705 0.0578671 11.9076 0.477779C11.1103 0.897691 10.4762 1.56504 10.1041 2.37608C9.73199 3.18712 9.64261 4.09641 9.84988 4.96259C8.21832 4.88212 6.62219 4.46495 5.16512 3.73814C3.70805 3.01133 2.42261 1.99113 1.39227 0.743792C1.02756 1.36015 0.835906 2.06082 0.836931 2.77403C0.836931 4.17386 1.56103 5.41053 2.66189 6.13458C2.01041 6.1144 1.37327 5.94129 0.803571 5.62968V5.67988C0.803768 6.61216 1.13164 7.5157 1.7316 8.23728C2.33156 8.95886 3.16668 9.45408 4.09537 9.63898C3.4906 9.80024 2.85646 9.82401 2.24097 9.70849C2.50281 10.511 3.01315 11.2128 3.70054 11.7157C4.38793 12.2185 5.21794 12.4973 6.07437 12.513C5.2232 13.1707 4.2486 13.657 3.20632 13.9439C2.16403 14.2308 1.0745 14.3127 0 14.185C1.87568 15.3719 4.05916 16.002 6.28925 16C13.8373 16 17.9651 9.84751 17.9651 4.51175C17.9651 4.33797 17.9602 4.16227 17.9523 3.99043C18.7558 3.41908 19.4492 2.71129 20 1.90034L19.999 1.89937Z"/>
</symbol></svg>